<svg id="Layer_1" data-name="Layer 1" xmlns="http://www.w3.org/2000/svg" xmlns:xlink="http://www.w3.org/1999/xlink" viewBox="0 0 635.97 766.91"><defs><style>.cls-1{fill:#555ba5;}.cls-2{fill:#706f6f;}.cls-3{fill:#6c75b6;}.cls-4{clip-path:url(#clip-path);}.cls-5{fill:#e8beac;}.cls-6{clip-path:url(#clip-path-2);}.cls-7{fill:#515150;}</style><clipPath id="clip-path"><ellipse class="cls-1" cx="317.98" cy="340.88" rx="317.98" ry="80.65"/></clipPath><clipPath id="clip-path-2"><path class="cls-2" d="M457.05,522.6a111.58,111.58,0,0,0-6.63-17.49A95.57,95.57,0,0,0,442,490.33c-2.95-4.11-6.2-8.09-9.26-12.15-1.86-2.46-3.59-5-5.4-7.47-3-4.16-6.5-8.13-8.69-12.64-.35-.71-.66-1.43-.93-2.15l-4.38-.4q-17.26-1.54-34.52-3.18H233l.43.36c0,.2,0,.29-.07.35a7.47,7.47,0,0,1-.78.7c-9.91,7.46-18.15,15.79-23.57,25.67A48.54,48.54,0,0,0,203.21,497c-1.76,14.57,1.58,28.68,7.36,42.51a119.71,119.71,0,0,0,13.68,23.82A145.94,145.94,0,0,0,244,585.14a345.3,345.3,0,0,0,31.31,24.91c9.47,6.83,18.42,14,25.77,22.22,8,9,13.63,18.59,16.43,29.23a51.09,51.09,0,0,1,.4,25.26c-.83,3.46-2.13,6.87-3.31,10.29-2.18,6.29-6,12.06-10.39,17.59a100.13,100.13,0,0,1-18.66,17.78,136.33,136.33,0,0,1-19.88,12.36c-1.81.92-3.52,2-5.28,2.94l0,.76a20.19,20.19,0,0,0,3.43,1.19,28.86,28.86,0,0,0,11.42-.24c6.61-1.65,13.21-3.36,19.65-5.35s12.88-4.4,19.31-6.62A232.42,232.42,0,0,0,341.08,726a258.66,258.66,0,0,0,24.58-13.77,239.23,239.23,0,0,0,25-18c5.16-4.31,10.05-8.81,14.94-13.29a172,172,0,0,0,16.17-17.25,144.5,144.5,0,0,0,12.49-16.84c2.29-3.76,4.9-7.42,7-11.24,2.88-5.32,5.45-10.75,8-16.16a63.91,63.91,0,0,0,3.34-8.14,191,191,0,0,0,5.91-21.21,159,159,0,0,0,3.29-26.42,188.41,188.41,0,0,0-.65-19.15A109.13,109.13,0,0,0,457.05,522.6Z"/></clipPath></defs><path class="cls-1" d="M142.4,296C110.59,197.87,406,0,406,0L510.52,51.41,608.23,155.8,456,113.74l-23.46,51.41,80.27,137.11"/><path class="cls-3" d="M304.49,186.18c-62.87,34.54-81.8,104.13-81.8,104.13l-25.75,19.74H519.61l-18.26-27.33L432.52,165.15,456,113.74,608.23,155.8,419.62,62.32,333.28,120Z"/><ellipse class="cls-1" cx="317.98" cy="340.88" rx="317.98" ry="80.65"/><g class="cls-4"><ellipse class="cls-3" cx="445.04" cy="341.86" rx="190.93" ry="127.25"/></g><path class="cls-1" d="M417.1,168.79l-22.22-7.62h39.46v11.77"/><path class="cls-5" d="M476.41,330.78c0,128.5-67.44,232.67-150.64,232.67S175.12,459.28,175.12,330.78C175.12,299.53,476.41,297.79,476.41,330.78Z"/><path d="M232.28,374.49c28.34-26.34,56.9,0,56.9,0"/><path d="M419.82,374.49c-28.33-26.34-56.9,0-56.9,0"/><path class="cls-2" d="M457.05,522.6a111.58,111.58,0,0,0-6.63-17.49A95.57,95.57,0,0,0,442,490.33c-2.95-4.11-6.2-8.09-9.26-12.15-1.86-2.46-3.59-5-5.4-7.47-3-4.16-6.5-8.13-8.69-12.64-.35-.71-.66-1.43-.93-2.15l-4.38-.4q-17.26-1.54-34.52-3.18H233l.43.36c0,.2,0,.29-.07.35a7.47,7.47,0,0,1-.78.7c-9.91,7.46-18.15,15.79-23.57,25.67A48.54,48.54,0,0,0,203.21,497c-1.76,14.57,1.58,28.68,7.36,42.51a119.71,119.71,0,0,0,13.68,23.82A145.94,145.94,0,0,0,244,585.14a345.3,345.3,0,0,0,31.31,24.91c9.47,6.83,18.42,14,25.77,22.22,8,9,13.63,18.59,16.43,29.23a51.09,51.09,0,0,1,.4,25.26c-.83,3.46-2.13,6.87-3.31,10.29-2.18,6.29-6,12.06-10.39,17.59a100.13,100.13,0,0,1-18.66,17.78,136.33,136.33,0,0,1-19.88,12.36c-1.81.92-3.52,2-5.28,2.94l0,.76a20.19,20.19,0,0,0,3.43,1.19,28.86,28.86,0,0,0,11.42-.24c6.61-1.65,13.21-3.36,19.65-5.35s12.88-4.4,19.31-6.62A232.42,232.42,0,0,0,341.08,726a258.66,258.66,0,0,0,24.58-13.77,239.23,239.23,0,0,0,25-18c5.16-4.31,10.05-8.81,14.94-13.29a172,172,0,0,0,16.17-17.25,144.5,144.5,0,0,0,12.49-16.84c2.29-3.76,4.9-7.42,7-11.24,2.88-5.32,5.45-10.75,8-16.16a63.91,63.91,0,0,0,3.34-8.14,191,191,0,0,0,5.91-21.21,159,159,0,0,0,3.29-26.42,188.41,188.41,0,0,0-.65-19.15A109.13,109.13,0,0,0,457.05,522.6Z"/><g class="cls-6"><path class="cls-7" d="M466.92,490.53c-13.47,2.69-26.74,6.21-40,9.66-11.61,3-25.39,6.56-36,7.89.78-.1-2.93.3-3.55.36-1.29.12-2.59.21-3.9.29-2.76.15-5.53.2-8.3.12-1.46-.05-2.92-.12-4.38-.25-.55,0-4.13-.5-1.48-.1a67.51,67.51,0,0,1-7.87-1.67c-1.4-.39-2.79-.82-4.16-1.3-.44-.15-3.73-1.49-1.57-.55a59.65,59.65,0,0,1-7.46-3.94c-1.34-.83-2.66-1.7-3.93-2.62a9.43,9.43,0,0,1-1.81-1.42,93.13,93.13,0,0,1-7.59-7.28l-2.63,20.42c2.15-1.65-1.05-1,1.66-1l-3.45-25.53c-21.68,7.85-43.34,15.79-65,23.56-16.12,5.77-36.16,13.2-51.89,5.41-10.6-5.25-21.16,3.35-19.1,14.68,2,11,9.94,19,18.44,25.42,7.91,6,16.32,11.42,24.48,17.1,16.25,11.31,32.19,23.12,46,37.42C295.52,619.8,307.85,636,309.6,653.3c1.8,17.86-6.32,35.65-18.35,49.19-15.26,17.17-35.32,28.69-54.95,40.1-14.46,8.41-1.38,30.89,13.12,22.45,38.36-22.31,80-50,85.82-97.93,5.62-45.9-33.53-81.89-66.76-106.86-9.53-7.16-19.36-13.9-29.17-20.66-4.32-3-9.67-6.37-13-9.24-4.08-3.49-6-5.69-6.76-10L200.44,535c21.66,10.72,45.15,6.44,67.1-1.09,23.42-8,46.59-16.83,69.87-25.26,6.06-2.2,10.32-7.57,9.31-14.27A13,13,0,0,0,334,483.15a24.12,24.12,0,0,0-14.79,4.53c-6.7,5.13-8.91,13.73-2.63,20.42,19.26,20.5,45.05,29.07,72.81,26.14,28.77-3,56.22-13,84.49-18.64,6.89-1.38,10.85-9.57,9.08-16-2-7.18-9.08-10.46-16-9.08Z"/></g><path class="cls-2" d="M392,527.1c-20.75-.19-39.79-5.47-56.35-18.38-5.16-4-10.41-4.3-16.06-1-12.72,7.43-25.3,15.13-40.27,17.52A124.62,124.62,0,0,1,147.93,457c-3.19-6.57-6.21-13.23-7.88-20.38-.43-1.86-.83-4.55,1-5.37,1.41-.63,2.09,2,3,3.27,14.12,19.59,34.71,28.19,54.7,22.7,12.32-3.38,21.52-11.36,29.94-20.49,15.3-16.61,32.95-29.18,56-32.69,15.61-2.38,29,1.7,40.12,13,.49.5.93,1.37,1.84.43,16.18-16.76,35.31-16.58,55.6-9.61,17.06,5.87,30.15,17.3,42.18,30.2,11.22,12.05,24,21.18,41.37,20.7,19.12-.52,32.57-10.81,43.1-25.83.51-.74.84-2.27,1.93-1.77.66.3,1,1.82,1.05,2.8,0,6.73-3,12.61-5.82,18.4-20.32,42.32-53.51,67.37-100.29,73.84C401.18,526.75,396.55,526.79,392,527.1Z"/></svg>